<?xml version="1.0" encoding="UTF-8"?>
<svg width="111px" height="32px" viewBox="0 0 111 32" version="1.1" xmlns="http://www.w3.org/2000/svg" xmlns:xlink="http://www.w3.org/1999/xlink">
    <title>编组</title>
    <g id="页面-1" stroke="none" stroke-width="1" fill="none" fill-rule="evenodd">
        <g id="1-0-1登录页" transform="translate(-60.000000, -32.000000)" fill="#FFFFFF">
            <g id="编组" transform="translate(60.000000, 32.000000)">
                <path d="M60.466189,16.0158822 C60.2861644,22.3762258 65.4416982,29.0185816 73.3777963,29.0385528 C81.2775755,29.0583362 86.3378945,22.5003975 86.3821644,16.1753914 C86.4299681,9.31816442 80.8322258,3.14186994 73.4881276,3.0975592 C66.1250847,3.05362454 60.3631215,9.18731779 60.466189,16.0158822 M73.4211828,31.9951706 C64.9649374,32.1275877 57.4593669,25.1084957 57.4626051,16.031784 C57.4657472,7.82908466 63.9636123,0.140446626 73.3982135,0.127374839 C82.6381644,0.114532515 89.3953669,7.58692515 89.3540357,16.1079558 C89.3082012,25.4695264 81.569011,32.1295509 73.4211828,31.9951706" id="Fill-1"></path>
                <path d="M2.98286135,16.0742675 C2.91444417,22.641335 8.17814969,28.9899975 15.8739534,29.0432982 C23.1051681,29.0932613 28.8928491,23.3461202 28.909475,16.1171632 C28.9271067,8.40928589 22.6007264,3.07372761 15.9653399,3.09652553 C8.78585521,3.12133497 2.9926773,8.89075828 2.98286135,16.0742675 M15.897119,31.9951509 C7.80641963,32.1121571 0.026002454,25.5172123 -7.08835705e-05,16.0742675 C-0.0237644172,7.40717546 6.88538896,0.0878134969 15.9875239,0.125946211 C25.5181252,0.166341104 31.9533644,8.00162945 31.8904442,16.1642798 C31.822027,25.0631264 24.4380761,32.1393472 15.897119,31.9951509" id="Fill-3"></path>
                <path d="M97.5689423,18.2613791 C97.3292368,17.5189988 97.120746,16.8734037 96.8913472,16.1631215 C97.563838,15.8620663 97.6811387,15.325919 97.6700466,14.6505816 C97.6321571,12.3287166 97.657973,10.0057718 97.653065,7.68321963 C97.6523779,7.33220123 97.617335,6.98108466 97.592108,6.51904785 C95.024746,6.40675337 92.5217767,6.53200491 89.9403779,6.4425816 C89.8014822,5.59782086 89.6714209,4.80665521 89.5157399,3.86020123 L97.6139975,3.86020123 L97.6139975,0.235268712 C99.1906356,0.0137226994 100.663028,0.114336196 102.271863,0.169207362 L102.271863,3.8408638 L110.123936,3.8408638 C109.981801,4.78015215 109.861948,5.57161227 109.72639,6.46721963 L102.494979,6.46721963 C102.236034,7.31247117 102.202758,14.0653546 102.444721,15.1508025 C102.766292,15.1508025 103.117016,15.1306798 103.464599,15.1545325 C104.603936,15.2325693 105.756721,15.2412074 106.877507,15.4335018 C108.762758,15.7571337 109.726881,16.8974528 109.783126,18.8152933 C109.810709,19.7556613 109.759175,20.7168393 109.590537,21.6406184 C109.268378,23.405919 108.840893,25.1520785 108.44639,26.9038331 C108.383175,27.1844712 108.264108,27.4526429 108.139151,27.8196613 C107.412476,27.6412074 106.726734,27.467465 106.038145,27.3052074 C105.341998,27.1409865 104.6432,26.9881521 103.838685,26.8062626 C103.987887,26.1048147 104.123053,25.447735 104.26774,24.7928147 C104.586758,23.3498699 104.789654,21.9046675 104.593237,20.4175509 C104.390734,18.8844957 103.718341,18.0685939 102.16909,17.9607166 C101.007372,17.8798331 99.8272,18.0546552 98.6559607,18.126508 C98.3328196,18.1463362 98.0122307,18.2050356 97.5689423,18.2613791" id="Fill-5"></path>
                <path d="M44.5840883,31.9337816 L40.0506896,31.9337816 C39.9502724,29.0914748 40.0192785,26.2590822 40.006616,23.4285546 C39.9940515,20.625708 40.0038675,17.8227632 40.0038675,14.9116466 L32.5918429,14.9116466 C32.4257571,14.0636466 32.2777325,13.3079166 32.1045791,12.4242847 L39.9168982,12.4242847 C40.0936834,10.3112049 39.9784442,8.29697178 39.999254,6.28784294 C40.0202601,4.2692908 40.0038675,2.25044417 40.0038675,0.164554601 L44.5090945,0.164554601 C44.5344196,0.514493252 44.5802601,0.857658896 44.5808491,1.20102086 C44.5862479,4.50497178 44.5840883,7.80902086 44.5841865,11.1131681 L44.5841865,12.3907141 L52.931573,12.3907141 C52.7954258,13.294665 52.6818552,14.0498061 52.5557202,14.8874012 L44.6474012,14.8874012 C44.6230577,15.3571926 44.586935,15.7360883 44.5866405,16.114984 C44.5828123,20.9892908 44.5840883,25.8635975 44.5840883,30.7379043 L44.5840883,31.9337816 Z" id="Fill-7"></path>
                <path d="M95.2811779,29.5429202 C97.7552883,29.5429202 100.06881,29.5420368 102.382528,29.5432147 C104.687706,29.5443926 106.99308,29.537816 109.439607,29.5480245 C109.16535,30.4534479 108.943313,31.1865031 108.698307,31.9950429 L107.686184,31.9950429 C103.372564,31.9951411 99.0589448,32.0015215 94.7454233,31.987681 C94.162454,31.9859141 93.5714356,31.9263313 92.9985767,31.8174724 C91.8080982,31.591411 91.1300123,30.7985767 90.8496687,29.6613006 C90.733546,29.1898405 90.6666994,28.6937423 90.6651288,28.2084417 C90.6508957,24.0570798 90.6560982,19.9056196 90.6589448,15.7542577 C90.6591411,15.5315337 90.6907485,15.308908 90.7167607,14.9692761 C92.2066258,14.9026258 93.6592883,14.936 95.2544785,14.951411 C95.2636074,16.2020613 95.2758773,17.3969571 95.2801963,18.5919509 C95.2846135,19.8013742 95.2811779,21.0107975 95.2811779,22.220319 L95.2811779,25.7506258 L95.2811779,29.5429202 Z" id="Fill-9"></path>
                <path d="M52.940211,30.8778012 C52.822027,31.0182675 52.8062233,31.0547828 52.7797202,31.065973 C50.9061497,31.8520344 51.071254,31.9235926 50.0507877,30.2235681 C49.3212663,29.0081571 48.9382479,27.6446233 48.7884564,26.2361325 C48.5262724,23.770562 48.3016834,21.301065 48.0693399,18.8324515 C48.0422479,18.5441571 48.0656098,18.2510528 48.0656098,17.8436908 C49.2330209,17.7343411 50.351254,17.7594699 51.5747141,17.8363288 C51.8319902,22.280108 51.8330699,26.6897276 52.940211,30.8778012" id="Fill-11"></path>
                <path d="M33.3352442,17.9512736 L36.7630724,17.9512736 C36.7630724,18.381016 36.7798577,18.7640344 36.7604221,19.1451877 C36.6174037,21.9514699 36.524054,24.764427 35.9956613,27.5334086 C35.7104098,29.0276908 35.146189,30.408108 34.039735,31.5984883 C33.362238,31.4172859 32.6843485,31.2358871 31.9257718,31.0328933 C33.1654282,26.7265374 33.0445939,22.3621693 33.3352442,17.9512736" id="Fill-13"></path>
                <path d="M49.163465,1.25462577 L52.4045939,1.25462577 C52.1879558,4.00888344 51.9991951,6.71219632 50.516692,9.23970552 C49.7829497,9.08657669 49.0633423,8.93639264 48.2493055,8.76647853 C48.5555632,6.25045399 48.8559313,3.78193865 49.163465,1.25462577" id="Fill-15"></path>
                <path d="M36.4342675,8.32053006 C35.6500712,8.60882454 34.9574577,8.86335215 34.1923043,9.14457914 C32.7218748,6.67027239 32.7599607,3.96038282 32.3187337,1.26354847 L35.5120589,1.26354847 C35.8138994,3.57265276 36.116427,5.88784294 36.4342675,8.32053006" id="Fill-17"></path>
            </g>
        </g>
    </g>
</svg>