<?xml version="1.0" encoding="UTF-8"?>
<svg width="68px" height="68px" viewBox="0 0 68 68" version="1.1" xmlns="http://www.w3.org/2000/svg" xmlns:xlink="http://www.w3.org/1999/xlink">
    <title>编组 2</title>
    <g id="页面-1" stroke="none" stroke-width="1" fill="none" fill-rule="evenodd">
        <g id="logo" transform="translate(-275.000000, -38.000000)">
            <g id="编组-2" transform="translate(275.000000, 38.000000)">
                <rect id="矩形" fill="#E50077" x="0" y="0" width="68" height="68" rx="8"></rect>
                <g id="编组备份-2" transform="translate(3.000000, 25.000000)" fill="#FFFFFF">
                    <path d="M33.9833829,9.00129258 C33.882205,12.5759513 36.779733,16.3091074 41.2400019,16.3203317 C45.6798587,16.3314504 48.5238739,12.6457387 48.5487546,9.0909404 C48.5756214,5.2370218 45.429562,1.76580286 41.3020106,1.7408992 C37.1638119,1.71620692 33.9254566,5.163483 33.9833829,9.00129258 M41.2643861,17.9820186 C36.5117826,18.0564401 32.29348,14.1115496 32.2953,9.01022978 C32.297066,4.40012487 35.9490149,0.07893422 41.2514769,0.0715875766 C46.4445409,0.0643698965 50.2422434,4.26402568 50.2190143,9.05304006 C50.1932543,14.3144571 45.8436522,18.0575434 41.2643861,17.9820186" id="Fill-1"></path>
                    <path d="M1.67643639,9.03410644 C1.63798437,12.7249488 4.59630741,16.2930425 8.92152532,16.3229987 C12.9856336,16.3510791 16.2384429,13.1210542 16.247787,9.05821481 C16.2576964,4.72621125 12.7021258,1.72750531 8.97288663,1.74031826 C4.93785183,1.75426173 1.68195318,4.99680976 1.67643639,9.03410644 M8.93454494,17.9820075 C4.38738661,18.0477677 0.0146139746,14.3412577 -3.98381899e-05,9.03410644 C-0.0133561467,4.16300224 3.86974627,0.0493531963 8.98535457,0.070784655 C14.3417707,0.09348751 17.9585226,4.49709899 17.9231599,9.0846954 C17.8847079,14.086051 13.7347584,18.0630492 8.93454494,17.9820075" id="Fill-3"></path>
                    <path d="M54.83598,10.2633133 C54.70126,9.84607851 54.5840834,9.48323928 54.455156,9.08404442 C54.8331113,8.91484449 54.8990369,8.61351746 54.8928029,8.23396237 C54.8715081,6.92902105 54.8860173,5.62347288 54.8832589,4.31814538 C54.8828727,4.120865 54.8631778,3.92352945 54.8489996,3.66385418 C53.4060834,3.60074212 51.9993573,3.67113635 50.5485521,3.6208784 C50.4704895,3.14610352 50.3973921,2.70145031 50.3098958,2.16952149 L54.8613021,2.16952149 L54.8613021,0.132226404 C55.7474087,0.00771247132 56.5749271,0.0642595607 57.4791289,0.0950984124 L57.4791289,2.15865342 L61.8921741,2.15865342 C61.812291,2.68655498 61.744931,3.13137369 61.6687441,3.63472554 L57.6045255,3.63472554 C57.4589926,4.10977626 57.4402907,7.90505139 57.5762795,8.51509794 C57.7570095,8.51509794 57.9541244,8.50378853 58.1494739,8.51719432 C58.7898077,8.5610528 59.4376994,8.56590757 60.0676064,8.67398147 C61.1271609,8.85587001 61.6690199,9.49675542 61.7006311,10.5746257 C61.7161333,11.1031341 61.6871702,11.6433381 61.5923917,12.1625231 C61.4113307,13.1546625 61.1710745,14.1360441 60.9493548,15.1205703 C60.9138267,15.2782953 60.846908,15.429014 60.7766793,15.6352868 C60.3682714,15.5349915 59.9828685,15.4373444 59.5958657,15.3461518 C59.204615,15.253856 58.8118748,15.1679596 58.3597188,15.0657335 C58.443574,14.6715037 58.5195401,14.3022098 58.6008576,13.9341296 C58.7801533,13.1231616 58.8941853,12.3109248 58.7837944,11.4751312 C58.669983,10.6135191 58.2920829,10.1549635 57.4213681,10.094334 C56.7684561,10.0488757 56.1051725,10.1471297 55.4469092,10.1875126 C55.2652965,10.1986565 55.0851182,10.2316469 54.83598,10.2633133" id="Fill-5"></path>
                    <path d="M25.0572787,17.9475166 L22.5094047,17.9475166 C22.452968,16.3500751 22.491751,14.7582056 22.4846343,13.1673842 C22.4775729,11.5921202 22.4830896,10.0168011 22.4830896,8.38068689 L18.3173621,8.38068689 C18.224018,7.90409147 18.1408249,7.47935387 18.0435087,6.98273251 L22.4342109,6.98273251 C22.5335683,5.79513329 22.4688012,4.66308815 22.4804968,3.53391173 C22.4923027,2.3994392 22.4830896,1.26480116 22.4830896,0.0924834543 L25.0151304,0.0924834543 C25.0293637,0.28915699 25.0551271,0.48202394 25.0554581,0.675001227 C25.0584924,2.53189731 25.0572787,4.38884856 25.0573338,6.24585497 L25.0573338,6.96386509 L29.7487562,6.96386509 C29.6722383,7.47190621 29.6084091,7.8963128 29.5375183,8.36706042 L25.0928619,8.36706042 C25.0791803,8.63109395 25.0588785,8.84404202 25.058713,9.05699008 C25.0565615,11.7964621 25.0572787,14.5359341 25.0572787,17.2754061 L25.0572787,17.9475166 Z" id="Fill-7"></path>
                    <path d="M53.550204,16.6037977 C54.9407107,16.6037977 56.2409628,16.6033012 57.5413252,16.6039632 C58.8368879,16.6046253 60.132561,16.600929 61.5075656,16.6066665 C61.3534265,17.1155351 61.2286367,17.5275289 61.0909377,17.9819468 L60.5221015,17.9819468 C58.0977485,17.982002 55.6733955,17.9855879 53.2490976,17.9778093 C52.9214555,17.9768162 52.5892897,17.9433293 52.2673298,17.8821481 C51.5982536,17.7550965 51.2171538,17.3095054 51.0595943,16.6703302 C50.9943307,16.4053588 50.9567614,16.1265403 50.9558787,15.8537902 C50.9478794,13.5206297 50.9508033,11.1874141 50.9524031,8.85425359 C50.9525135,8.72907765 50.9702775,8.60395687 50.984897,8.41307596 C51.8222353,8.37561696 52.6386649,8.39437405 53.5351983,8.4030354 C53.5403289,9.10592952 53.5472249,9.77748827 53.5496523,10.4491022 C53.5521349,11.1288258 53.550204,11.8085494 53.550204,12.4883282 L53.550204,14.4724414 L53.550204,16.6037977 Z" id="Fill-9"></path>
                    <path d="M29.753611,17.3540314 C29.6871888,17.4329767 29.6783068,17.4534991 29.6634115,17.4597883 C28.6104219,17.9015727 28.7032143,17.9417901 28.1296889,16.9863374 C27.7196811,16.3032486 27.504416,15.5369114 27.4202298,14.7453073 C27.2728764,13.3596002 27.1466522,11.9716864 27.0160698,10.584269 C27.0008435,10.4222409 27.0139735,10.2575096 27.0139735,10.0285629 C27.6700852,9.96710583 28.2985578,9.98122881 28.9861704,10.0244253 C29.1307655,12.5219309 29.1313723,15.0002381 29.753611,17.3540314" id="Fill-11"></path>
                    <path d="M18.7351706,10.0890269 L20.6616886,10.0890269 C20.6616886,10.3305519 20.6711223,10.545817 20.6601991,10.7600339 C20.5798194,12.3372288 20.5273548,13.9181751 20.230386,15.4744062 C20.0700681,16.314227 19.7529631,17.0900531 19.1311106,17.7590741 C18.7503418,17.6572341 18.3693523,17.5552839 17.9430149,17.4411967 C18.6397302,15.0209261 18.5718185,12.5680513 18.7351706,10.0890269" id="Fill-13"></path>
                    <path d="M27.6309932,0.705128413 L29.4525819,0.705128413 C29.3308263,2.2530843 29.2247385,3.77240805 28.3915378,5.1929261 C27.9791578,5.10686419 27.574722,5.02245731 27.1172146,4.92696169 C27.2893385,3.51289828 27.4581522,2.12553613 27.6309932,0.705128413" id="Fill-15"></path>
                    <path d="M20.4768927,4.67632844 C20.0361564,4.83835654 19.6468918,4.98140688 19.216858,5.1394629 C18.390443,3.74884584 18.4118482,2.22582584 18.1638685,0.710143174 L19.9585904,0.710143174 C20.1282316,2.00791267 20.2982591,3.30910257 20.4768927,4.67632844" id="Fill-17"></path>
                </g>
            </g>
        </g>
    </g>
</svg>
