<?xml version="1.0" encoding="UTF-8"?>
<svg width="131px" height="38px" viewBox="0 0 131 38" version="1.1" xmlns="http://www.w3.org/2000/svg" xmlns:xlink="http://www.w3.org/1999/xlink">
    <title>编组备份</title>
    <g id="页面-1" stroke="none" stroke-width="1" fill="none" fill-rule="evenodd">
        <g id="logo" transform="translate(-46.000000, -91.000000)" fill="#E50077">
            <g id="编组备份" transform="translate(46.000000, 91.000000)">
                <path d="M71.8035994,19.0188601 C71.5898202,26.5717681 77.7120166,34.4595656 87.1361331,34.4832815 C96.5171209,34.5067742 102.52625,26.7192221 102.57882,19.2082773 C102.635587,11.0653202 95.9882681,3.73097055 87.2671515,3.67835155 C78.523538,3.62617914 71.6812067,10.9099399 71.8035994,19.0188601 M87.1876546,37.994265 C77.1458632,38.1515104 68.2329982,29.8163387 68.2368435,19.0377436 C68.2405748,9.29703804 75.9567896,0.166780368 87.1603785,0.151257622 C98.1328202,0.136007362 106.156998,9.00947362 106.107917,19.1281975 C106.053489,30.2450626 96.8632006,38.1538417 87.1876546,37.994265" id="Fill-1"></path>
                <path d="M3.54214785,19.0881926 C3.46090245,26.8865853 9.71155276,34.4256221 18.8503196,34.4889166 C27.4373871,34.5482479 34.3102583,27.7235178 34.3300015,19.1391313 C34.3509393,9.98602699 26.8383626,3.65005153 18.9588411,3.67712407 C10.4332031,3.70658528 3.55380429,10.5577755 3.54214785,19.0881926 M18.8778288,37.9942417 C9.27012331,38.1331865 0.0308779141,30.3016896 -8.417424e-05,19.0881926 C-0.0282202454,8.79602086 8.17639939,0.104278528 18.9851847,0.149561126 C30.3027736,0.197530061 37.9446202,9.50193497 37.8699025,19.1950822 C37.7886571,29.7624626 29.0202153,38.1654748 18.8778288,37.9942417" id="Fill-3"></path>
                <path d="M115.863119,21.6853877 C115.578469,20.803811 115.330886,20.0371669 115.058475,19.1937067 C115.857058,18.8362037 115.996352,18.1995288 115.98318,17.3975656 C115.938187,14.6403509 115.968843,11.881854 115.963015,9.12382331 C115.962199,8.70698896 115.920585,8.29003804 115.890628,7.74136933 C112.841886,7.60801963 109.86961,7.75675583 106.804199,7.65056564 C106.63926,6.64741227 106.484812,5.70790307 106.299941,4.58398896 L115.916622,4.58398896 L115.916622,0.279381595 C117.78888,0.0162957055 119.537346,0.135774233 121.447837,0.200933742 L121.447837,4.56102577 L130.772174,4.56102577 C130.603389,5.67643067 130.461064,6.61628957 130.300088,7.67982331 L121.712788,7.67982331 C121.405291,8.68355951 121.365775,16.7026086 121.653107,17.9915779 C122.034972,17.9915779 122.451456,17.9676822 122.864211,17.9960074 C124.217174,18.0886761 125.586107,18.0989337 126.917039,18.3272834 C129.155775,18.7115963 130.300671,20.0657252 130.367463,22.3431607 C130.400217,23.4598479 130.339021,24.6012466 130.138763,25.6982344 C129.756199,27.7945288 129.248561,29.8680933 128.780088,31.9483018 C128.705021,32.2815595 128.563628,32.6000135 128.415242,33.0358479 C127.552315,32.8239337 126.737996,32.6176147 125.920297,32.4249337 C125.093622,32.2299215 124.2638,32.0484307 123.308438,31.8324368 C123.485616,30.9994675 123.646125,30.2191853 123.817941,29.4414675 C124.196775,27.7279706 124.437714,26.0117926 124.204469,24.2458417 C123.963996,22.4253387 123.16553,21.4564552 121.325794,21.3283509 C119.946254,21.2323018 118.5448,21.4399031 117.153953,21.5252282 C116.770223,21.5487742 116.389524,21.6184798 115.863119,21.6853877" id="Fill-5"></path>
                <path d="M52.9436049,37.9213656 L47.5601939,37.9213656 C47.4409485,34.5461264 47.5228933,31.1826601 47.5078564,27.8214086 C47.4929362,24.4930282 47.5045926,21.1645313 47.5045926,17.7075804 L38.7028135,17.7075804 C38.5055865,16.7005804 38.3298074,15.8031509 38.1241877,14.753838 L47.4013166,14.753838 C47.6112491,12.2445558 47.4744025,9.85265399 47.4991141,7.4668135 C47.5240589,5.06978282 47.5045926,2.67240245 47.5045926,0.195408589 L52.8545497,0.195408589 C52.8846233,0.610960736 52.9390589,1.01846994 52.9397583,1.42621227 C52.9461693,5.34965399 52.9436049,9.27321227 52.9437215,13.1968871 L52.9437215,14.713973 L62.8562429,14.713973 C62.6945681,15.7874147 62.5597031,16.6841448 62.4099178,17.678789 L53.018789,17.678789 C52.989881,18.2366663 52.9469853,18.6866049 52.9466356,19.1365436 C52.9420896,24.9247828 52.9436049,30.7130221 52.9436049,36.5012613 L52.9436049,37.9213656 Z" id="Fill-7"></path>
                <path d="M113.146399,35.0822178 C116.084405,35.0822178 118.831712,35.0811687 121.579252,35.0825675 C124.31665,35.0839663 127.054282,35.0761564 129.959534,35.0882791 C129.633853,36.1634693 129.370184,37.0339724 129.079239,37.9941135 L127.877344,37.9941135 C122.75492,37.9942301 117.632497,38.0018067 112.51019,37.9853712 C111.817914,37.983273 111.11608,37.9125184 110.43581,37.7832485 C109.022117,37.5148006 108.21689,36.5733098 107.883982,35.2227945 C107.746086,34.6629356 107.666706,34.073819 107.66484,33.4975245 C107.647939,28.5677822 107.654117,23.6379233 107.657497,18.708181 C107.65773,18.4436963 107.695264,18.1793282 107.726153,17.7760153 C109.495368,17.6968681 111.220405,17.7365 113.114693,17.7548006 C113.125534,19.2399479 113.140104,20.6588865 113.145233,22.0779417 C113.150479,23.5141319 113.146399,24.9503221 113.146399,26.3866288 L113.146399,30.5788681 L113.146399,35.0822178 Z" id="Fill-9"></path>
                <path d="M62.8665006,36.667389 C62.7261571,36.8341926 62.7073902,36.8775546 62.6759178,36.8908429 C60.4510528,37.8242908 60.6471141,37.9092663 59.4353104,35.8904871 C58.5690037,34.4471865 58.1141693,32.8279902 57.936292,31.1554074 C57.6249485,28.2275423 57.3582491,25.2950147 57.0823411,22.3635362 C57.0501693,22.0211865 57.0779117,21.6731252 57.0779117,21.1893828 C58.4642123,21.0595301 59.7921141,21.0893706 61.244973,21.1806405 C61.5504883,26.4576282 61.5517706,31.6940515 62.8665006,36.667389" id="Fill-11"></path>
                <path d="M39.5856025,21.3171374 L43.6561485,21.3171374 C43.6561485,21.8274564 43.676081,22.2822908 43.6530012,22.7349104 C43.4831669,26.0673706 43.3723141,29.4077571 42.7448479,32.6959227 C42.4061117,34.4703828 41.7360994,36.1096282 40.4221853,37.5232049 C39.6176577,37.308027 38.8126638,37.092616 37.911854,36.8515607 C39.383946,31.7377632 39.2404552,26.5550761 39.5856025,21.3171374" id="Fill-13"></path>
                <path d="M58.3816147,1.4898681 L62.2304552,1.4898681 C61.9731975,4.76054908 61.7490442,7.97073313 59.9885718,10.9721503 C59.1172528,10.7903098 58.262719,10.6119663 57.2960503,10.4101933 C57.6597313,7.42241411 58.0164184,4.49105215 58.3816147,1.4898681" id="Fill-15"></path>
                <path d="M43.2656926,9.88062945 C42.3344595,10.2229791 41.511981,10.5252307 40.6033613,10.8591877 C38.8572264,7.92094847 38.9024534,4.7029546 38.3784963,1.5004638 L42.1705699,1.5004638 C42.5290055,4.24252515 42.8882571,6.9918135 43.2656926,9.88062945" id="Fill-17"></path>
            </g>
        </g>
    </g>
</svg>